<svg width="47" height="38" viewBox="0 0 47 38" fill="none" xmlns="http://www.w3.org/2000/svg">
<path d="M13.8809 -1.43146e-06C12.7279 -1.48186e-06 11.762 0.389321 10.9834 1.16797C10.2048 1.94661 9.81543 3.00228 9.81543 4.33496C9.81543 5.65267 10.1973 6.70084 10.9609 7.47949C11.7396 8.27311 12.7129 8.66992 13.8809 8.66992C15.0488 8.66992 16.0296 8.2806 16.8232 7.50195C17.6169 6.73828 18.0137 5.68262 18.0137 4.33496C18.0137 2.97233 17.6094 1.90918 16.8008 1.14551C16.0072 0.381835 15.0339 -1.38106e-06 13.8809 -1.43146e-06ZM32.4336 -6.20497e-07C31.2806 -6.70896e-07 30.3148 0.389322 29.5361 1.16797C28.7575 1.94661 28.3682 3.00228 28.3682 4.33496C28.3682 5.65267 28.75 6.70085 29.5137 7.47949C30.2923 8.27311 31.2656 8.66992 32.4336 8.66992C33.6016 8.66992 34.5824 8.2806 35.376 7.50195C36.1696 6.73828 36.5664 5.68262 36.5664 4.33496C36.5664 2.97233 36.1621 1.90918 35.3535 1.14551C34.5599 0.381835 33.5866 -5.70098e-07 32.4336 -6.20497e-07Z" fill="white"/>
<path d="M23.0674 37.6221L23.5615 37.6221C25.613 37.6221 27.5521 37.4574 29.3789 37.1279C31.2207 36.7985 32.9352 36.3493 34.5225 35.7803C36.1097 35.2113 37.5547 34.5449 38.8574 33.7812C40.1751 33.0326 41.3506 32.2314 42.3838 31.3779C43.402 30.5244 44.2705 29.6484 44.9893 28.75C45.708 27.8516 46.2546 26.9756 46.6289 26.1221L43.2822 24.9316C42.9378 25.3809 42.5186 25.8301 42.0244 26.2793C41.5452 26.7435 40.9987 27.1927 40.3848 27.627C39.4564 28.2708 38.3558 28.8773 37.083 29.4463C35.8102 30.0303 34.3727 30.5244 32.7705 30.9287C31.4827 31.2432 30.0752 31.4902 28.5479 31.6699C27.0205 31.8646 25.3734 31.9619 23.6064 31.9619L23.0225 31.9619C21.2106 31.9619 19.526 31.8646 17.9687 31.6699C16.4115 31.4902 14.9889 31.2432 13.7012 30.9287C12.2936 30.5544 11.0208 30.1201 9.88281 29.626C8.74479 29.1468 7.72656 28.6152 6.82812 28.0312C6.06445 27.5371 5.39811 27.028 4.8291 26.5039C4.24512 25.9798 3.75846 25.4557 3.36914 24.9316L-1.14183e-06 26.1221C0.374348 26.9756 0.920897 27.8516 1.63965 28.75C2.3584 29.6484 3.23437 30.5244 4.26758 31.3779C5.28581 32.2314 6.45377 33.0326 7.77148 33.7812C9.07422 34.5449 10.5192 35.2113 12.1064 35.7803C13.6937 36.3493 15.4007 36.7985 17.2275 37.1279C19.0693 37.4574 21.0159 37.6221 23.0674 37.6221Z" fill="white"/>
</svg>
